<?xml version="1.0" encoding="UTF-8"?>
<svg id="Layer_2" data-name="Layer 2" xmlns="http://www.w3.org/2000/svg" viewBox="0 0 343.52 343.52">
  <defs>
    <style>
      .cls-1 {
        fill: #fefefe;
      }

      .cls-1, .cls-2, .cls-3, .cls-4, .cls-5 {
        stroke-width: 0px;
      }

      .cls-2 {
        fill: #013696;
      }

      .cls-3 {
        fill: #0674d1;
      }

      .cls-4 {
        fill: #152242;
      }

      .cls-5 {
        fill: #5ac9f6;
      }
    </style>
  </defs>
  <g id="Layer_4" data-name="Layer 4">
    <circle class="cls-4" cx="171.76" cy="171.76" r="171.76"/>
    <g>
      <path class="cls-2" d="m284.79,151.67c-.23,12.93-4.49,25.85-11.96,36.34-4.44,6.24-10.02,11.63-16.57,15.65-12.57,7.71-27.68,10.15-42.41,10.6-14.74.45-29.49-.92-44.21-.12.67-23.76,12.9-48.24,34.41-58.25-6.71,5.99-5.21,17.78,1.29,23.99,3.88,3.7,8.92,5.74,14.26,6.62h0c2.14.19,19.23,1.2,29.72-12.13,4.01-5.09,6.99-11.67,7.03-18.24,0-1.72-.26-3.31-.77-4.78-.11.16-.22.32-.34.48-6.29,8.76-15.74,10.22-17.37,10.44.55-2.95.82-7.21-.96-11.5-2.04-4.9-6.1-8.21-10.65-10.48-5.14-2.57-11.08-3.19-16.61-1.63-.02,0-.05,0-.07.02-6.12,1.72-11.96,4.44-17.17,8.02-16.8,11.53-27.36,30.55-32.45,50.31-5.1,19.75-5.27,40.42-4.96,60.82-21.76,0-43.51-.02-65.27-.02,0-16.4-.01-146.9-.01-170.42,33.99-.52,67.97-1.03,101.95-1.55,22.75-.35,47.06-.26,66.04,12.3,17.4,11.51,27.47,32.69,27.09,53.57Z"/>
      <path class="cls-3" d="m209.47,138.63c-3.97.96-9.28,2.5-13.93,4.21-4.73,1.73-15.68,6.08-34.49,19.39-22.84,16.15-24.89,22.58-42.67,33.5-11.5,7.06-21.84,11.24-28.68,13.65v-51.51c0-23.51,0-47.01,0-70.52,33.91-.52,67.83-1.03,101.75-1.54,22.8-.35,47.17-.26,66.2,12.3,17.44,11.51,27.54,32.69,27.16,53.57-.21,11.61-3.66,23.19-9.79,33.03h0c-.7,1.13-1.43,2.23-2.2,3.31-4.45,6.24-10.04,11.63-16.61,15.65-8.62,5.28-18.44,8.09-28.5,9.47-.36.05-.72.1-1.08.14-4.15.51-8.33.79-12.48.92-14.77.45-29.55-.92-44.31-.12.66-23.48,12.64-47.66,33.73-57.89-6.35,6.06-4.8,17.57,1.62,23.68,3.89,3.7,8.94,5.74,14.29,6.62h0c.25.02.73.06,1.37.08h.01c3.3.46,6.71.49,10.01.19,8.53-.76,17.05-3.42,23.82-8.66.82-.64,1.63-1.32,2.39-2.04,12.78-11.98,12.15-30.93,2.81-44.81.32,1.52,2.23,11.07-3.92,20.02-.1.15-.21.3-.31.45-.04-.13-.08-.26-.13-.39-.11.16-.22.32-.34.48-5.87,8.16-14.49,9.99-16.97,10.37-.18.03-.22.05-.33.07.55-2.95.72-7.21-1.07-11.5-2.05-4.9-6.11-8.21-10.68-10.48-4.21-2.1-8.95-2.9-13.57-2.27-.01,0-.03,0-.04,0-.44.06-.88.13-1.33.22-.58.11-1.15.25-1.71.4Z"/>
      <path class="cls-5" d="m225.11,138.8c-17.54-9.82-38.84-2.58-44.45-.67-7,2.38-13.48,5.9-15.43,7-4.44,2.51-8.69,5.33-12.77,8.38-3.2,2.39-6.29,4.93-9.27,7.59-.82.73-1.63,1.47-2.43,2.22-.51.48-1.41,1.06-1.75,1.68,3.57-6.33,12.51-20.15,29.88-30.17,12.94-7.47,27.92-11.19,42.85-10.74-1.31-.04-3.25-1.32-4.52-1.76-1.81-.63-3.64-1.18-5.49-1.65-3.57-.91-7.2-1.52-10.87-1.84-10.31-.89-20.37,1.48-30.21,4.3-16.54,4.75-28.41,10.21-31.7,11.81-6.59,3.21-11.68,6.22-21.56,12.04-7.38,4.35-13.44,8.14-17.7,10.85,0-23.51,0-47.01,0-70.52,33.91-.52,67.83-1.03,101.75-1.54,22.8-.35,47.17-.26,66.2,12.3,17.44,11.51,27.54,32.69,27.16,53.57-.21,11.61-3.66,23.2-9.79,33.04,2.84-5.79,6.12-15.71,3.43-27.55-3.73-16.43-16.24-24.47-18.56-25.91.32,1.52,2.23,11.07-3.92,20.02-.1.15-.21.3-.31.45-.04-.13-.08-.26-.13-.39-.11.16-.22.32-.34.48-5.87,8.16-14.49,9.99-16.97,10.37-.18.03-.22.05-.33.07.44-2.41.76-6.79-1.07-11.5-2.64-6.78-8.33-10.07-11.69-11.95Z"/>
      <path class="cls-1" d="m249.49,158.15c-.63.47-1.32.86-2.01,1.23-1.74.93-3.61,1.65-5.52,2.14-1.23.32-2.81.62-4.08.74.03,0,.54-1.26.77-2.04.15-.5.25-1.02.32-1.54.04-.28.11-.58.11-.86,0-.05.01-.1.02-.15.17-1.49.22-2.99.15-4.48-.14-2.91-.74-5.79-1.77-8.52-1.02-2.72-2.46-5.29-4.22-7.6-1.8-2.37-3.93-4.49-6.29-6.3-2.09-1.6-4.36-2.92-6.75-4.02-1.05-.48-1.81-.76-2.13-.88,3.49.31,7.41.86,11.64,1.77,4.24.91,8.04,2.02,11.37,3.16-1.44-4.53-4.36-11.34-10.59-16.96-15.14-13.65-37.73-9.28-46.5-7.57-15.11,2.93-25.31,9.37-43.57,20.9-3.99,2.53-7.45,4.88-10.99,7.3-2.67,1.82-5.4,3.67-8.45,5.66-.31.2-.62.41-.94.61-2.41,1.55-5.04,3.19-8,4.96-.58.34-1.16.69-1.76,1.05-1.51.88-3.1,1.81-4.8,2.76-6.55,3.69-12.07,6.53-15.81,8.39,3.25-2.12,8.13-5.43,13.78-9.84,16.71-13.05,19.24-19.37,32.63-31.04,19-16.56,41.96-29.2,67.51-31.08,17.88-1.32,38.86,2.2,54.01,12.19,17.44,11.51,27.54,32.69,27.16,53.57-.21,11.61-3.66,23.2-9.79,33.04.88-1.42,1.41-3.05,1.95-4.62.62-1.79,1.12-3.62,1.51-5.48.78-3.69,1.09-7.48.86-11.24-.39-6.34-2.38-12.61-5.67-18.07-2.37-3.93-5.4-7.46-8.88-10.45-1.54-1.32-3.17-2.54-4.9-3.61.54,2.45,1.36,7.82-.74,14.02-2.49,7.35-7.53,11.28-9.64,12.87Z"/>
    </g>
  </g>
</svg>